<svg xmlns="http://www.w3.org/2000/svg" viewBox="0 0 976.03 688.74" id="city"><path fill="#1D1C33" d="M566.56 441.76a20.66 20.66 0 0 1-1-3.64C562.07 416.6 545.62 295.61 637 255c45-20 96-53 261 8 194.74 72 322-50 352-50s98-44 178 42 20 190 20 190-38 98-26 148 26 90 22 106-6 124-72 148-44 20-198 12-234 14-266 26-80 8-166-50-106-40-150-66-155.78-169.8-62-274c36.25-40.28 37.46-50.71 36.56-53.24Z" transform="translate(-493.57 -201.75)"></path><circle cx="195.58" cy="162.52" r="30.08" fill="#E3F6F5"></circle><circle cx="228.25" cy="162.38" r="20.48" fill="#E3F6F5"></circle><circle cx="161.31" cy="161.96" r="16.48" fill="#E3F6F5"></circle><circle cx="785.59" cy="114.83" r="30.08" fill="#E3F6F5"></circle><circle cx="818.26" cy="114.69" r="20.48" fill="#E3F6F5"></circle><circle cx="751.32" cy="114.27" r="16.48" fill="#E3F6F5"></circle><circle cx="459.16" cy="219.68" r="30.08" fill="#E3F6F5"></circle><circle cx="491.82" cy="219.54" r="20.48" fill="#E3F6F5"></circle><circle cx="424.89" cy="219.12" r="16.48" fill="#E3F6F5"></circle><g data-name="build 1"><path fill="#2C698D" d="M517 687s19-28 21-32 1-20 1-20h-7s6-17 23-17 22 8 24 12 1 6 1 6h-6v16l29 48h12v78s-71-37-98-91Z" transform="translate(-493.57 -201.75)"></path><path fill="#E3F6F5" d="M584 758h14v-20s-7-11-14 0Z" transform="translate(-493.57 -201.75)"></path><circle cx="94.78" cy="506.75" r="8.83" fill="#BAE8E8"></circle><path fill="#BAE8E8" d="M522.79 697.83a8.83 8.83 0 0 1 10.36 14.3" transform="translate(-493.57 -201.75)"></path><circle cx="63.21" cy="466.71" r="8.83" fill="#BAE8E8"></circle><path fill="#E3F6F5" d="M542.1 701.41a9.93 9.93 0 0 1 2.35-6.23 15.69 15.69 0 0 1 11.45-5.83c9.3-.25 13.38 7.57 13.95 10.77.86 4.83.67 29.15.67 29.15l-21.77-.12-6.82-7.15Z" transform="translate(-493.57 -201.75)"></path></g><g data-name="build 2"><path fill="#BAE8E8" d="M612.72 669.12 615 778s41.22 15.38 58.6 19.05 57.82 26.74 57.82 26.74l-.68-154.16-118-.79" transform="translate(-493.57 -201.75)"></path><path fill="#2C698D" d="m611.88 669.12 118.86.5-.54-28.41H695s-4.37-17-20.76-17c-20.11 0-23.46 17.9-23.46 17.9l-39-.41Z" transform="translate(-493.57 -201.75)"></path><path fill="#2C698D" d="M130.88 483.52h21.02v22.8h-21.02zM168.86 483.2h21.02V506h-21.02z"></path><path fill="#E3F6F5" d="M206.35 483.53h21.02v22.8h-21.02z"></path><path fill="#2C698D" d="M206.67 526.42h21.02v22.8h-21.02zM206.97 576.33h21.02v22.8h-21.02zM168.04 525.77h21.02v22.8h-21.02z"></path><path fill="#E3F6F5" d="M168.04 525.77h21.02v22.8h-21.02z"></path><path fill="#2C698D" d="M131.04 526.75h21.02v22.8h-21.02z"></path><path fill="#2C698D" d="m625.08 781.46-.16-6.66 20.41.42.06 13.41s-15.11-5.02-20.31-7.17Z" transform="translate(-493.57 -201.75)"></path><path fill="#2C698D" d="m169.17 592.26-.3-16.98 20.69.43-.46 22.21-19.93-5.66z"></path><circle cx="179.55" cy="444.38" r="11.56" fill="#E3F6F5"></circle></g><g data-name="build 3"><path fill="#2C698D" d="m730.39 745.53 1 78.27s62.28 41.44 66.22 44.4 36.51 18.75 51.32 19.74L851.6 730l-8.75-.34-42.79-53.14-15.85-.76-53.81 69.73" transform="translate(-493.57 -201.75)"></path><path fill="#BAE8E8" d="m236.82 543.78 53.87-67.67 5.95.22 6.8.4 3.75.39 42.09 50.84 8.75.33v-3.03l-8.42-.34-40.32-49.28.26-19.06-19.53-1.01-.75 19.51-51.78 24.93-.67 43.77z"></path><path fill="#E3F6F5" d="M271.01 529.1h9.8v11.46h-9.8zM314.22 529.19h9.8v11.46h-9.8zM298.32 529.16h9.8v11.46h-9.8zM285.31 529.07h9.8v11.46h-9.8zM271.02 546.62h9.8v11.46h-9.8zM314.23 546.71h9.8v11.46h-9.8zM298.34 546.69h9.8v11.46h-9.8zM285.33 546.6h9.8v11.46h-9.8zM247.77 598.39h9.8v11.46h-9.8zM260.5 585.21h9.8v11.46h-9.8zM247.49 585.12h9.8v11.46h-9.8zM260.63 598.5h9.8v11.46h-9.8zM286.16 598.66h9.8v11.46h-9.8zM298.88 585.48h9.8v11.46h-9.8zM285.87 585.39h9.8v11.46h-9.8zM299.01 598.77h9.8v11.46h-9.8zM323.32 599.04h9.8v11.46h-9.8zM336.04 585.85h9.8v11.46h-9.8zM323.03 585.76h9.8v11.46h-9.8zM336.17 599.15h9.8v11.46h-9.8zM322.8 654.99h9.8v16.35h-9.8zM335.53 641.8h9.8v11.46h-9.8zM322.52 641.72h9.8v11.46h-9.8zM296.96 641.48h9.8v11.46h-9.8zM306.85 668.15l-9.79-6.37-.05-6.29h9.8l.04 12.66zM283.95 641.39h9.8v11.46h-9.8zM293.7 659.38l-2.49-1.72-4.08-2.69 6.55.02.02 4.39zM335.66 655.1h9.8v16.28h-9.8z"></path></g><g data-name="build 4"><path fill="#2C698D" d="M408.75 423.96h18.47l-.28-9.01-18.49-.19.3 9.2z"></path><path fill="#BAE8E8" d="M850.77 710.24 849 887.93s31.74 4.89 60.29-2.32 61.61-15 61.61-15l1.1-158.68-19.22-9.44-31.18-55.2-.77-21.58h-18.5l-.59 21.58-32.85 54.23Z" transform="translate(-493.57 -201.75)"></path><path fill="#2C698D" d="M404.66 523.73h12.12v15.08h-12.12zM421.09 524h12.93v14.81h-12.93zM404.39 541.63h12.12v15.08h-12.12zM420.82 541.9h12.93v14.81h-12.93zM404.92 577.56h12.12v15.08h-12.12zM376.36 577.47h12.12v15.08h-12.12zM448.04 578.14h12.12v15.08h-12.12zM448.39 644.57h12.12v15.08h-12.12zM376.5 645h12.12v15.08H376.5zM421.35 577.82h12.93v14.81h-12.93zM404.65 595.46h12.12v15.08h-12.12zM421.08 595.73h12.93v14.81h-12.93zM404.7 642.91h12.12v15.08H404.7zM421.13 643.18h12.93v14.81h-12.93zM404.43 660.82h12.12v15.08h-12.12zM420.86 661.09h12.93v14.81h-12.93z"></path><circle cx="383.09" cy="540.49" r="8.47" fill="#2C698D"></circle><circle cx="451.78" cy="542.37" r="8.47" fill="#2C698D"></circle><path fill="#2C698D" d="M357.2 508.49h18.47l-.29-9.01-18.49-.19.31 9.2zM459.93 510.18h18.47l-.29-9.01-18.48-.19.3 9.2z"></path><circle cx="418.67" cy="489.57" r="14.56" fill="#2C698D"></circle></g><g data-name="build 5"><path fill="#2C698D" d="m964.34 712.69 1.07 76.68s2.8 82.15 3.07 81.88c6.57-6.79 108.08-13.72 119.81-14l-2.73-160-8.75-.34-42.81-53.18-15.85-.76-53.81 69.73" transform="translate(-493.57 -201.75)"></path><path fill="#BAE8E8" d="m470.77 510.94 53.87-67.67 5.95.23 6.8.4 3.75.38 42.09 50.84 8.75.34v-3.03l-8.42-.34-40.32-49.29.26-19.06-19.53-1.01-.75 19.52-52.41 58.87-.04 9.82z"></path><path fill="#E3F6F5" d="M504.95 496.26h9.8v11.46h-9.8zM548.17 496.36h9.8v11.46h-9.8zM532.27 496.33h9.8v11.46h-9.8zM519.26 496.24h9.8v11.46h-9.8zM504.97 513.78h9.8v11.46h-9.8zM548.18 513.88h9.8v11.46h-9.8zM532.29 513.85h9.8v11.46h-9.8zM519.28 513.76h9.8v11.46h-9.8zM481.95 573.78h9.8v11.46h-9.8zM494.67 560.6h9.8v11.46h-9.8zM481.66 560.51h9.8v11.46h-9.8zM494.8 573.89h9.8v11.46h-9.8zM520.33 574.05h9.8v11.46h-9.8zM533.06 560.87h9.8v11.46h-9.8zM520.05 560.78h9.8v11.46h-9.8zM533.19 574.16h9.8v11.46h-9.8zM557.49 574.43h9.8v11.46h-9.8zM570.22 561.24h9.8v11.46h-9.8zM557.21 561.15h9.8v11.46h-9.8zM570.35 574.54h9.8V586h-9.8zM482.22 624.04h9.8v11.46h-9.8zM494.94 610.85h9.8v11.46h-9.8zM481.93 610.76h9.8v11.46h-9.8zM495.07 624.14h9.8v11.46h-9.8zM520.6 624.31h9.8v11.46h-9.8zM533.33 611.12h9.8v11.46h-9.8zM520.32 611.03h9.8v11.46h-9.8zM533.46 624.41h9.8v11.46h-9.8zM557.76 624.68h9.8v11.46h-9.8zM570.49 611.5h9.8v11.46h-9.8zM557.48 611.41h9.8v11.46h-9.8zM570.62 624.79h9.8v11.46h-9.8z"></path></g><g data-name="build 6"><path fill="#BAE8E8" d="M1097 676.17s25.86-41.17 27.86-45.17 1-20 1-20h-7s6-17 23-17 22 8 24 12 1 6 1 6h-6v16l29 48h12l3.94 184.91s-114.07-5.35-116.48-3.74c-.75.5-.69-4.73-.81-5.64-.5-3.9-4.77-145.35-2.62-175.19 0 .03 11.19-.18 11.11-.17Z" transform="translate(-493.57 -201.75)"></path><path fill="#E3F6F5" d="M1170.38 734.48h14v-20s-7-11-14 0ZM1103.15 736.09h14v-20s-7-11-14 0ZM1103.15 787.72h14v-20s-7-11-14 0ZM1136.58 788.32h14v-20s-7-11-14 0ZM1170 788.92h14v-20s-7-11-14 0ZM1104 837.12h14v-20s-7-11-14 0ZM1137.44 837.72h14v-20s-7-11-14 0ZM1170.88 838.33h14v-20s-7-11-14 0Z" transform="translate(-493.57 -201.75)"></path><circle cx="681.16" cy="483.22" r="8.83" fill="#BAE8E8"></circle><circle cx="618.04" cy="481.88" r="8.83" fill="#BAE8E8"></circle><circle cx="650.26" cy="525.45" r="8.83" fill="#BAE8E8"></circle><circle cx="649.6" cy="443.19" r="8.83" fill="#BAE8E8"></circle><path fill="#E3F6F5" d="M1128.49 677.89a9.93 9.93 0 0 1 2.35-6.23 15.69 15.69 0 0 1 11.45-5.83c9.3-.25 13.38 7.57 13.95 10.77.86 4.83.67 29.15.67 29.15h-28.74l.15-7.23Z" transform="translate(-493.57 -201.75)"></path></g><g data-name="build 7"><path fill="#2C698D" d="m1202.36 710.91 3 150.19s32.92.34 53.07 2.85c17.63 2.2 60 .17 60 .17l2-152.7-118-.79" transform="translate(-493.57 -201.75)"></path><path fill="#2C698D" d="m1201.52 710.91 118.86.5-.54-28.41h-35.21s-4.37-17-20.76-17c-20.11 0-23.46 17.9-23.46 17.9l-39-.41Z" transform="translate(-493.57 -201.75)"></path><path fill="#E3F6F5" d="M720.52 525.31h21.02v22.8h-21.02zM758.5 524.98h21.02v22.8H758.5zM795.99 525.31h21.02v22.8h-21.02zM796.31 568.2h21.02V591h-21.02zM796.61 618.12h21.02v22.8h-21.02zM758.53 617.2h21.02V640h-21.02zM720.53 616.73h21.02v22.8h-21.02zM757.68 567.55h21.02v22.8h-21.02z"></path><path fill="#E3F6F5" d="M757.68 567.55h21.02v22.8h-21.02zM720.68 568.53h21.02v22.8h-21.02z"></path><circle cx="769.19" cy="486.16" r="11.56" fill="#E3F6F5"></circle></g><g data-name="build 8"><path fill="#E3F6F5" d="M877.88 380.45h18.47l-.29-9-18.49-.2.31 9.2z"></path><path fill="#BAE8E8" d="m1319.9 666.74-2.21 197.61s39.54-10 64.58-22.44c23.73-11.77 35-37.68 37.7-42.74a11.59 11.59 0 0 0 .72-1.69l13.72-40.78a20.44 20.44 0 0 0 .85-3.44l6.26-40.24 3-18.42a11 11 0 0 0 0-3.44l-3.31-21.91a1.55 1.55 0 0 0-.85-1.15l-18.54-9.1-31.18-55.2-.77-21.58h-18.47l-.59 21.58L1338 658Z" transform="translate(-493.57 -201.75)"></path><path fill="#E3F6F5" d="M873.79 480.23h12.12v15.08h-12.12zM890.21 480.49h12.93v14.81h-12.93zM873.52 498.13h12.12v15.08h-12.12zM889.94 498.4h12.93v14.81h-12.93zM874.05 534.05h12.12v15.08h-12.12zM845.49 533.97h12.12v15.08h-12.12zM917.17 534.64h12.12v15.08h-12.12zM921.07 607.92l-3.64 5.24.46-13.22 7.36-.3-4.18 8.28zM845.63 601.5h12.12v15.08h-12.12zM890.47 534.32h12.93v14.81h-12.93zM873.78 551.96h12.12v15.08h-12.12zM890.2 552.23h12.93v14.81H890.2zM873.83 599.41h12.12v15.08h-12.12zM890.25 599.68h12.93v14.81h-12.93zM873.56 617.32h12.12v15.08h-12.12zM901.89 631.35l-1.37 1.05h-10.54v-14.81h12.93v12.78l-1.02.98z"></path><circle cx="852.22" cy="496.98" r="8.47" fill="#E3F6F5"></circle><circle cx="920.91" cy="498.87" r="8.47" fill="#E3F6F5"></circle><path fill="#E3F6F5" d="M826.32 464.99h18.47l-.28-9.01-18.49-.19.3 9.2zM929.06 466.68h18.47l-1.2-5.65-.78-3.38-16.8-.17.31 9.2z"></path><circle cx="887.79" cy="446.07" r="14.56" fill="#E3F6F5"></circle></g></svg>